<?xml version="1.0" encoding="utf-8"?>
<!-- Generator: Adobe Illustrator 16.0.0, SVG Export Plug-In . SVG Version: 6.00 Build 0)  -->
<!DOCTYPE svg PUBLIC "-//W3C//DTD SVG 1.1//EN" "http://www.w3.org/Graphics/SVG/1.1/DTD/svg11.dtd">
<svg version="1.1" id="Layer_1" xmlns="http://www.w3.org/2000/svg" xmlns:xlink="http://www.w3.org/1999/xlink" x="0px" y="0px"
	 width="20px" height="20px" viewBox="0 0 20 20" enable-background="new 0 0 20 20" xml:space="preserve">
<g>
	<g>
		<g>
			<g>
				<path fill="#808285" d="M10.282,19.039l1.711-3.867L6.46,2.94c0,0-0.944-1.079,1.439-1.889H4.302l6.521,14.076l-0.45,0.944
					L3.357,0.961l-3.373,0.045c0,0,2.204-0.045,3.643,3.373L10.282,19.039z"/>
			</g>
			<path fill="#808285" d="M20.015,1.03h-3.329l-3.694,8.927l-5.269-7.83l5.084,10.83l4.244-9.659
				C17.051,3.298,17.637,1.433,20.015,1.03z"/>
		</g>
	</g>
	<circle fill="none" stroke="#808285" stroke-width="0.5" stroke-miterlimit="10" cx="18.808" cy="2.884" r="0.875"/>
	<g>
		<g>
			<path fill="#7E8083" d="M18.379,3.369V3.347h0.115V2.37h-0.115V2.348h0.428c0.239,0,0.356,0.081,0.356,0.243
				c0,0.143-0.097,0.223-0.288,0.242c0.086,0.013,0.148,0.039,0.187,0.076c0.038,0.038,0.062,0.099,0.072,0.185
				c0.002,0.02,0.004,0.042,0.005,0.07c0.013,0.123,0.042,0.184,0.092,0.184c0.021,0,0.038-0.003,0.055-0.01l0.011,0.02
				c-0.049,0.016-0.093,0.023-0.14,0.023c-0.061,0-0.107-0.024-0.14-0.073c-0.022-0.034-0.038-0.1-0.048-0.197
				c-0.002-0.023-0.006-0.053-0.01-0.089c-0.01-0.071-0.037-0.119-0.084-0.144c-0.034-0.018-0.093-0.027-0.172-0.027h-0.052v0.497
				h0.108v0.022H18.379z M18.651,2.37v0.456h0.052c0.202,0,0.302-0.075,0.302-0.224c0-0.083-0.02-0.144-0.063-0.181
				c-0.037-0.034-0.1-0.052-0.186-0.052H18.651z"/>
		</g>
	</g>
</g>
</svg>
