<?xml version="1.0" encoding="utf-8"?>
<!-- Generator: Adobe Illustrator 22.0.0, SVG Export Plug-In . SVG Version: 6.00 Build 0)  -->
<svg version="1.1" id="katman_1" xmlns="http://www.w3.org/2000/svg" xmlns:xlink="http://www.w3.org/1999/xlink" x="0px" y="0px"
	 viewBox="0 0 288.1 194.4" style="enable-background:new 0 0 288.1 194.4;" xml:space="preserve">
<style type="text/css">
	.st0{stroke:#000000;stroke-width:0.25;stroke-miterlimit:10;}
	.st1{fill:#808285;}
	.st2{fill:none;stroke:#808285;stroke-width:0.5;stroke-miterlimit:10;}
	.st3{fill:#7E8083;}
</style>
<g>
	<g>
		<path class="st0" d="M20.4,105.1v-0.8h14.8v0.8h-4.7l10.2,29.5l8.8-25.2c0.5-1.5,0.8-2.4,0.8-2.7c0-0.7-0.5-1.2-1.6-1.4
			c-0.3-0.1-1.1-0.1-2.5-0.2v-0.8h10.6v0.8c-1.9,0.1-3.2,0.3-3.9,0.7c-0.8,0.5-1.5,1.5-2.1,3.2l-12.5,35l-13.9-38.9H20.4z"/>
		<path class="st0" d="M61.3,141.9v-36.8h-4v-0.8h28.4l0.7,9.3h-0.9c-0.3-3.5-1.4-5.9-3.2-7.1c-1.5-1-4.1-1.5-7.9-1.5h-7.2v17.6h1.8
			c3,0,5.1-0.3,6.2-1c1.5-0.9,2.2-2.7,2.2-5.5V116H78v14.4h-0.8v-0.5c0-2.8-0.7-4.6-2.2-5.4c-1-0.6-3.1-0.9-6.2-0.9h-1.8v18.3h7.4
			c4.5,0,7.6-0.6,9.5-1.8c2.4-1.5,3.7-4.3,3.7-8.4v-0.2h0.8v11.2H57.2v-0.8H61.3z"/>
		<path class="st0" d="M96.8,142.7v-0.8h4.3v-36.8h-4.3v-0.8h16.1c8.9,0,13.3,3,13.3,9.1c0,5.4-3.6,8.4-10.8,9.1
			c3.2,0.5,5.6,1.4,7,2.9c1.5,1.4,2.4,3.7,2.7,6.9c0.1,0.7,0.2,1.6,0.3,2.6c0.4,4.6,1.5,6.9,3.4,6.9c0.8,0,1.5-0.1,2.1-0.4l0.3,0.8
			c-1.8,0.6-3.5,0.8-5.2,0.8c-2.4,0-4.1-0.9-5.3-2.7c-0.8-1.3-1.4-3.8-1.8-7.4c-0.1-0.8-0.2-2-0.4-3.3c-0.4-2.7-1.4-4.5-3.1-5.4
			c-1.3-0.7-3.5-1-6.5-1H107v18.7h4v0.8H96.8z M107,105.1v17.2h1.9c7.6,0,11.4-2.8,11.4-8.4c0-3.2-0.8-5.4-2.3-6.8
			c-1.5-1.3-3.8-2-7.1-2H107z"/>
		<path class="st0" d="M135.3,142.7v-0.8h4.3v-36.8h-4.3v-0.8h14.3v0.8h-4.1v36.8h6.5c5.2,0,8.7-0.5,10.5-1.6c2.6-1.5,4-4.5,4-9.1
			v-1h0.8v12.5H135.3z"/>
		<path class="st0" d="M169.5,142.7v-0.8h0.7c2,0,3.4-1.2,4.2-3.5l0-0.1l11.2-34.4h0.6l13.7,38h3.8v0.8H189v-0.8h5l-4.2-11.6h-11.8
			l-2.9,9.2c-0.2,0.5-0.2,0.8-0.2,1c0,0.6,0.7,1.1,2,1.2c0.2,0,1.1,0.1,2.7,0.1v0.8H169.5z M178.2,129.4h11.3l-5.9-16.4L178.2,129.4
			z"/>
		<path class="st0" d="M206.2,129h0.8c0.3,3.9,1.3,7,3.2,9.5c2.1,2.8,5,4.2,8.7,4.2c2.6,0,4.8-0.8,6.6-2.4c1.8-1.6,2.7-3.7,2.7-6.3
			c0-2.1-0.8-3.9-2.4-5.3c-1.3-1.1-4.2-2.1-8.8-3l-0.7-0.1c-3.4-0.7-5.8-1.7-7.4-3.2c-1.8-1.7-2.6-4.2-2.6-7.4
			c0-3.4,0.9-6.1,2.7-8.2c1.9-2.1,4.5-3.2,7.9-3.2c1.7,0,3.7,0.5,6.1,1.6c2.3,1.1,3.4,1.6,3.3,1.6c1,0,1.4-0.6,1.4-1.9v-0.3h0.8
			v11.3h-0.8c-0.4-3.4-1.5-6.1-3.1-8.1c-1.9-2.3-4.5-3.5-7.7-3.5c-2.5,0-4.5,0.7-5.9,2c-1.5,1.3-2.2,3.3-2.2,5.8c0,2.8,1,4.8,3.1,6
			c0.7,0.4,2.2,0.8,4.5,1.2c1.6,0.3,3.3,0.6,4.9,0.8c3.3,0.8,5.7,1.9,7.2,3.4c1.7,1.7,2.5,4.2,2.5,7.4c0,3.7-1,6.7-3.1,9
			c-2.1,2.4-5,3.6-8.7,3.6c-1.7,0-3.8-0.5-6.4-1.5s-4-1.5-4.3-1.5c-0.9,0-1.3,0.8-1.4,2.3h-0.8V129z"/>
		<path class="st0" d="M238.4,129h0.8c0.3,3.9,1.3,7,3.2,9.5c2.1,2.8,5,4.2,8.7,4.2c2.6,0,4.8-0.8,6.6-2.4c1.8-1.6,2.7-3.7,2.7-6.3
			c0-2.1-0.8-3.9-2.4-5.3c-1.3-1.1-4.2-2.1-8.8-3l-0.7-0.1c-3.4-0.7-5.8-1.7-7.4-3.2c-1.8-1.7-2.6-4.2-2.6-7.4
			c0-3.4,0.9-6.1,2.7-8.2c1.9-2.1,4.5-3.2,7.9-3.2c1.7,0,3.7,0.5,6.1,1.6c2.3,1.1,3.4,1.6,3.3,1.6c1,0,1.4-0.6,1.4-1.9v-0.3h0.8
			v11.3h-0.8c-0.4-3.4-1.5-6.1-3.1-8.1c-1.9-2.3-4.5-3.5-7.7-3.5c-2.5,0-4.5,0.7-5.9,2c-1.5,1.3-2.2,3.3-2.2,5.8c0,2.8,1,4.8,3.1,6
			c0.7,0.4,2.2,0.8,4.5,1.2c1.6,0.3,3.3,0.6,4.9,0.8c3.3,0.8,5.7,1.9,7.2,3.4c1.7,1.7,2.5,4.2,2.5,7.4c0,3.7-1,6.7-3.1,9
			c-2.1,2.4-5,3.6-8.7,3.6c-1.7,0-3.8-0.5-6.4-1.5s-4-1.5-4.3-1.5c-0.9,0-1.3,0.8-1.4,2.3h-0.8V129z"/>
	</g>
	<g>
		<path class="st1" d="M106.9,165c-0.1,0.9-0.4,1.7-0.9,2.2c-0.6,0.6-1.3,0.9-2.2,0.9c-1.3,0-2.3-0.4-3-1.2
			c-0.8-0.8-1.2-1.8-1.2-3.1c0-1.3,0.4-2.4,1.2-3.4c0.9-1,1.9-1.5,3.2-1.5c0.7,0,1.3,0.2,1.8,0.5c0.6,0.4,1,0.9,1,1.5
			c0,0.3-0.1,0.5-0.3,0.7c-0.2,0.2-0.5,0.3-0.7,0.3c-0.3,0-0.5-0.1-0.7-0.3s-0.3-0.4-0.3-0.7c0-0.3,0.2-0.6,0.5-1
			c0.1-0.1,0.1-0.1,0.1-0.1c0-0.2-0.2-0.3-0.6-0.5c-0.3-0.1-0.6-0.1-0.8-0.1c-0.8,0-1.4,0.3-1.9,0.8c-0.4,0.5-0.7,1.5-0.7,2.8v1.4
			c0,1.3,0.2,2.2,0.6,2.7c0.4,0.5,1,0.8,1.8,0.8c1.6,0,2.6-0.9,2.8-2.7H106.9z"/>
		<path class="st1" d="M107.7,163.6c0-1.2,0.4-2.3,1.3-3.2c0.8-0.9,1.8-1.3,2.9-1.3c1.2,0,2.2,0.5,3,1.4c0.8,0.9,1.2,1.9,1.2,3.1
			c0,1.2-0.4,2.3-1.3,3.2c-0.8,0.9-1.7,1.3-2.9,1.3c-0.8,0-1.6-0.3-2.3-0.8c-0.7-0.5-1.2-1.2-1.5-2
			C107.9,164.8,107.7,164.2,107.7,163.6z M109.7,164.9c0,1.9,0.8,2.9,2.3,2.9c1.5,0,2.2-1,2.2-2.9v-2.6c0-1.9-0.7-2.9-2.2-2.9
			c-1.5,0-2.3,1-2.3,2.9V164.9z"/>
		<path class="st1" d="M117.1,167.8v-0.3h1.2v-7.9h-1.2v-0.3h1.2c0-0.1,0-0.2,0-0.5c0-0.2,0-0.4,0-0.5c0-1.4,0.2-2.5,0.5-3.4
			c0.5-1.3,1.4-1.9,2.5-1.9c0.5,0,0.9,0.2,1.3,0.5c0.3,0.3,0.5,0.8,0.5,1.3c0,0.7-0.3,1-1,1c-0.5,0-0.8-0.3-0.8-0.9
			c0-0.2,0.2-0.5,0.5-0.7s0.5-0.4,0.5-0.5c0-0.3-0.3-0.5-0.9-0.5c-0.6,0-1,0.4-1.2,1.2c-0.1,0.4-0.1,1-0.1,2v2.7h1.9v0.3h-1.9v7.9
			h1.2v0.3H117.1z"/>
		<path class="st1" d="M122.7,167.8v-0.3h1.2v-7.9h-1.2v-0.3h1.2c0-0.1,0-0.2,0-0.5c0-0.2,0-0.4,0-0.5c0-1.4,0.2-2.5,0.5-3.4
			c0.5-1.3,1.4-1.9,2.5-1.9c0.5,0,0.9,0.2,1.3,0.5c0.3,0.3,0.5,0.8,0.5,1.3c0,0.7-0.3,1-1,1c-0.5,0-0.8-0.3-0.8-0.9
			c0-0.2,0.2-0.5,0.5-0.7s0.5-0.4,0.5-0.5c0-0.3-0.3-0.5-0.9-0.5c-0.6,0-1,0.4-1.2,1.2c-0.1,0.4-0.1,1-0.1,2v2.7h1.9v0.3h-1.9v7.9
			h1.2v0.3H122.7z"/>
		<path class="st1" d="M130.4,162.7v2.5c0,1.7,0.7,2.6,2.1,2.6c0.8,0,1.5-0.3,2-0.8c0.5-0.5,0.9-1.1,1.1-1.9h0.3
			c-0.2,0.9-0.6,1.7-1.2,2.2c-0.6,0.6-1.4,0.9-2.3,0.9c-1.2,0-2.1-0.5-2.9-1.4c-0.7-0.9-1.1-1.9-1.1-3.1c0-1.2,0.3-2.2,0.9-3.1
			c0.7-1,1.6-1.5,2.7-1.5c1,0,1.9,0.4,2.6,1.1c0.7,0.7,1,1.6,1.1,2.6H130.4z M130.4,162.4h3.3v-1c0-1.4-0.6-2.1-1.7-2.1
			c-1.1,0-1.6,0.8-1.6,2.4V162.4z"/>
		<path class="st1" d="M138.8,162.7v2.5c0,1.7,0.7,2.6,2.1,2.6c0.8,0,1.5-0.3,2-0.8c0.5-0.5,0.9-1.1,1.1-1.9h0.3
			c-0.2,0.9-0.6,1.7-1.2,2.2c-0.6,0.6-1.4,0.9-2.3,0.9c-1.2,0-2.1-0.5-2.9-1.4c-0.7-0.9-1.1-1.9-1.1-3.1c0-1.2,0.3-2.2,0.9-3.1
			c0.7-1,1.6-1.5,2.7-1.5c1,0,1.9,0.4,2.6,1.1c0.7,0.7,1,1.6,1.1,2.6H138.8z M138.8,162.4h3.3v-1c0-1.4-0.6-2.1-1.7-2.1
			c-1.1,0-1.6,0.8-1.6,2.4V162.4z"/>
		<path class="st1" d="M153.1,166.3c0,0.9,0.3,1.3,0.9,1.3c0.7,0,1.2-0.4,1.5-1.2h0.3c-0.3,1.1-1.1,1.6-2.2,1.6
			c-0.7,0-1.3-0.2-1.7-0.6c-0.3-0.3-0.5-0.8-0.5-1.4v-6.4H150v-0.3c1.6,0,2.6-1,2.9-2.8h0.3v2.8h2.4v0.3h-2.4V166.3z"/>
		<path class="st1" d="M165.7,166.9c-0.6,0.7-1.2,1.1-1.9,1.1c-1,0-1.5-0.5-1.7-1.4c-0.6,1-1.6,1.4-3,1.4c-0.7,0-1.2-0.2-1.7-0.6
			c-0.5-0.4-0.8-0.9-0.8-1.6c0-1.1,0.7-1.9,2-2.4c0.9-0.3,2-0.5,3.4-0.5h0.1v-2.2c0-1-0.5-1.5-1.6-1.5c-0.3,0-0.7,0.1-1.1,0.3
			c-0.5,0.2-0.7,0.5-0.7,0.8c0.4,0.4,0.6,0.7,0.6,0.9c0,0.7-0.3,1-0.9,1c-0.7,0-1-0.3-1-1c0-0.7,0.4-1.3,1.1-1.7
			c0.6-0.4,1.3-0.5,2.1-0.5c0.9,0,1.7,0.3,2.4,0.8c0.4,0.3,0.6,0.6,0.7,0.9c0.1,0.3,0.1,0.6,0.1,1.2v4.3c0,0.9,0.2,1.4,0.7,1.4
			c0.3,0,0.7-0.3,1.1-0.8L165.7,166.9z M162.1,166.3v-2.9c-0.2,0-0.4,0-0.6,0c-1.9,0-2.9,0.8-2.9,2.4c0,1.3,0.5,1.9,1.5,1.9
			C161,167.6,161.6,167.2,162.1,166.3z"/>
		<path class="st1" d="M165.6,167.5h1.2v-13.6h-1.2v-0.3h1.1c0.7,0,1.4-0.2,2-0.5v7.9c0.6-1.3,1.5-2,2.9-2c1.1,0,2.1,0.5,2.8,1.4
			c0.7,0.9,1.1,1.9,1.1,3.1c0,1.3-0.3,2.4-1,3.2c-0.8,0.9-1.8,1.4-3,1.4c-1.1,0-2-0.6-2.7-1.7v1.4h-3V167.5z M168.7,161.8v3.9
			c0.6,1.4,1.5,2.1,2.8,2.1c0.8,0,1.4-0.3,1.7-1c0.2-0.5,0.3-1.1,0.3-2.1v-2.5c0-1.9-0.7-2.9-2.1-2.9
			C170.2,159.4,169.3,160.2,168.7,161.8z"/>
		<path class="st1" d="M176.4,167.8v-0.3h1.2v-13.6h-1.2v-0.3h1c0.8,0,1.4-0.2,2-0.5v14.4h1.2v0.3H176.4z"/>
		<path class="st1" d="M183.3,162.7v2.5c0,1.7,0.7,2.6,2.1,2.6c0.8,0,1.5-0.3,2-0.8c0.5-0.5,0.9-1.1,1.1-1.9h0.3
			c-0.2,0.9-0.6,1.7-1.2,2.2c-0.6,0.6-1.4,0.9-2.3,0.9c-1.2,0-2.1-0.5-2.9-1.4c-0.7-0.9-1.1-1.9-1.1-3.1c0-1.2,0.3-2.2,0.9-3.1
			c0.7-1,1.6-1.5,2.7-1.5c1,0,1.9,0.4,2.6,1.1c0.7,0.7,1,1.6,1.1,2.6H183.3z M183.3,162.4h3.3v-1c0-1.4-0.6-2.1-1.7-2.1
			c-1.1,0-1.6,0.8-1.6,2.4V162.4z"/>
	</g>
	<g>
		<g>
			<g>
				<g>
					<path class="st1" d="M145.2,93.6l6.8-15.5l-22.2-49c0,0-3.8-4.3,5.8-7.6h-14.4L147.4,78l-1.8,3.8l-28.1-60.5l-13.5,0.2
						c0,0,8.8-0.2,14.6,13.5L145.2,93.6z"/>
				</g>
				<path class="st1" d="M184.2,21.5h-13.3L156,57.2l-21.1-31.4l20.4,43.4l17-38.7C172.3,30.6,174.6,23.1,184.2,21.5z"/>
			</g>
		</g>
		<circle class="st2" cx="179.3" cy="28.9" r="3.5"/>
		<g>
			<g>
				<path class="st3" d="M177.6,30.9L177.6,30.9l0.5-0.1v-3.9h-0.5v-0.1h1.7c0.9,0,1.4,0.3,1.4,1c0,0.6-0.4,0.9-1.2,1
					c0.3,0.1,0.6,0.2,0.7,0.3s0.3,0.4,0.3,0.7c0,0.1,0,0.2,0,0.3c0,0.5,0.2,0.7,0.4,0.7c0.1,0,0.2,0,0.2,0l0,0.1
					c-0.2,0.1-0.4,0.1-0.5,0.1c-0.3,0-0.4-0.1-0.6-0.3c-0.1-0.1-0.2-0.4-0.2-0.8c0-0.1,0-0.2,0-0.4c0-0.3-0.2-0.5-0.3-0.6
					c-0.1-0.1-0.4-0.1-0.7-0.1h-0.2v2h0.4v0.1H177.6z M178.7,26.9v1.8h0.2c0.8,0,1.2-0.3,1.2-0.9c0-0.3-0.1-0.6-0.2-0.7
					c-0.2-0.1-0.4-0.2-0.8-0.2H178.7z"/>
			</g>
		</g>
	</g>
</g>
</svg>
