<?xml version="1.0" encoding="utf-8"?>
<!-- Generator: Adobe Illustrator 16.0.0, SVG Export Plug-In . SVG Version: 6.00 Build 0)  -->
<!DOCTYPE svg PUBLIC "-//W3C//DTD SVG 1.1//EN" "http://www.w3.org/Graphics/SVG/1.1/DTD/svg11.dtd">
<svg version="1.1" id="katman_1" xmlns="http://www.w3.org/2000/svg" xmlns:xlink="http://www.w3.org/1999/xlink" x="0px" y="0px"
	 width="137.667px" height="38.333px" viewBox="32.833 19.833 137.667 38.333"
	 enable-background="new 32.833 19.833 137.667 38.333" xml:space="preserve">
<g>
	<g>
		<path stroke="#000000" stroke-width="0.25" stroke-miterlimit="10" d="M73.834,27.553v-0.299h5.548v0.299H77.62l3.823,11.059
			l3.299-9.446c0.188-0.562,0.301-0.899,0.301-1.012c0-0.263-0.188-0.45-0.6-0.524c-0.113-0.038-0.413-0.038-0.938-0.076v-0.299
			h3.973v0.299c-0.711,0.038-1.199,0.113-1.461,0.263c-0.301,0.188-0.563,0.563-0.787,1.2l-4.687,13.12l-5.21-14.583H73.834z"/>
		<path stroke="#000000" stroke-width="0.25" stroke-miterlimit="10" d="M89.166,41.349V27.553h-1.5v-0.299h10.646l0.263,3.486
			h-0.337c-0.113-1.313-0.525-2.213-1.2-2.662c-0.562-0.375-1.536-0.563-2.962-0.563h-2.698v6.598h0.675
			c1.125,0,1.912-0.112,2.324-0.375c0.563-0.337,0.824-1.012,0.824-2.062v-0.038h0.225v5.398h-0.299V36.85
			c0-1.049-0.263-1.725-0.825-2.023c-0.375-0.226-1.162-0.338-2.324-0.338h-0.675v6.86h2.773c1.688,0,2.85-0.226,3.563-0.675
			c0.898-0.563,1.387-1.612,1.387-3.148v-0.076h0.3v4.199H87.629v-0.3H89.166z"/>
		<path stroke="#000000" stroke-width="0.25" stroke-miterlimit="10" d="M102.475,41.648v-0.3h1.611V27.553h-1.611v-0.299h6.035
			c3.336,0,4.985,1.124,4.985,3.41c0,2.025-1.35,3.149-4.049,3.412c1.2,0.188,2.1,0.524,2.624,1.087
			c0.563,0.524,0.9,1.388,1.012,2.587c0.038,0.262,0.076,0.6,0.113,0.975c0.15,1.725,0.563,2.586,1.274,2.586
			c0.3,0,0.563-0.037,0.787-0.149l0.112,0.3c-0.674,0.225-1.312,0.3-1.949,0.3c-0.899,0-1.537-0.337-1.986-1.013
			c-0.301-0.486-0.525-1.424-0.675-2.773c-0.038-0.3-0.075-0.75-0.15-1.236c-0.149-1.013-0.524-1.688-1.162-2.025
			c-0.487-0.262-1.312-0.375-2.437-0.375h-0.713v7.011h1.5v0.3H102.475z M106.297,27.553v6.448h0.713c2.85,0,4.273-1.05,4.273-3.149
			c0-1.199-0.3-2.023-0.861-2.549c-0.563-0.487-1.426-0.75-2.662-0.75H106.297z"/>
		<path stroke="#000000" stroke-width="0.25" stroke-miterlimit="10" d="M116.906,41.648v-0.3h1.612V27.553h-1.612v-0.299h5.36
			v0.299h-1.537v13.796h2.438c1.949,0,3.262-0.188,3.936-0.601c0.975-0.562,1.5-1.687,1.5-3.41v-0.375h0.3v4.686H116.906z"/>
		<path stroke="#000000" stroke-width="0.25" stroke-miterlimit="10" d="M129.728,41.648v-0.3h0.262c0.75,0,1.274-0.45,1.574-1.312
			v-0.038l4.199-12.896h0.225l5.136,14.245h1.425v0.3h-5.511v-0.3h1.874L137.337,37h-4.424l-1.087,3.449
			c-0.075,0.188-0.075,0.299-0.075,0.375c0,0.225,0.263,0.412,0.75,0.449c0.075,0,0.412,0.037,1.012,0.037v0.301h-3.785V41.648z
			 M132.988,36.662h4.236l-2.212-6.147L132.988,36.662z"/>
		<path stroke="#000000" stroke-width="0.25" stroke-miterlimit="10" d="M143.485,36.513h0.299c0.113,1.462,0.488,2.624,1.2,3.562
			c0.787,1.049,1.874,1.574,3.261,1.574c0.975,0,1.8-0.3,2.475-0.9c0.675-0.6,1.012-1.387,1.012-2.361
			c0-0.787-0.299-1.462-0.899-1.986c-0.487-0.412-1.574-0.787-3.299-1.125l-0.263-0.037c-1.274-0.263-2.174-0.638-2.773-1.199
			c-0.675-0.638-0.975-1.575-0.975-2.774c0-1.274,0.337-2.287,1.012-3.074c0.713-0.787,1.688-1.199,2.961-1.199
			c0.638,0,1.388,0.187,2.287,0.6c0.862,0.412,1.275,0.6,1.237,0.6c0.375,0,0.524-0.225,0.524-0.712v-0.113h0.301v4.236h-0.301
			c-0.149-1.274-0.563-2.287-1.162-3.036c-0.712-0.862-1.687-1.312-2.887-1.312c-0.937,0-1.686,0.262-2.211,0.749
			c-0.563,0.487-0.824,1.237-0.824,2.175c0,1.049,0.374,1.799,1.162,2.249c0.262,0.149,0.824,0.3,1.687,0.45
			c0.6,0.111,1.237,0.225,1.837,0.299c1.236,0.301,2.137,0.713,2.699,1.275c0.637,0.637,0.937,1.574,0.937,2.773
			c0,1.387-0.374,2.512-1.162,3.374c-0.787,0.899-1.874,1.35-3.261,1.35c-0.638,0-1.425-0.188-2.399-0.563
			c-0.975-0.374-1.499-0.562-1.612-0.562c-0.338,0-0.487,0.299-0.524,0.861h-0.3v-5.173H143.485z"/>
		<path stroke="#000000" stroke-width="0.25" stroke-miterlimit="10" d="M155.556,36.513h0.3c0.112,1.462,0.487,2.624,1.2,3.562
			c0.787,1.049,1.873,1.574,3.261,1.574c0.975,0,1.8-0.3,2.474-0.9c0.676-0.6,1.013-1.387,1.013-2.361
			c0-0.787-0.3-1.462-0.899-1.986c-0.488-0.412-1.574-0.787-3.299-1.125l-0.263-0.037c-1.274-0.263-2.175-0.638-2.774-1.199
			c-0.674-0.638-0.975-1.575-0.975-2.774c0-1.274,0.338-2.287,1.012-3.074c0.713-0.787,1.688-1.199,2.962-1.199
			c0.638,0,1.388,0.187,2.287,0.6c0.862,0.412,1.274,0.6,1.237,0.6c0.375,0,0.524-0.225,0.524-0.712v-0.113h0.3v4.236h-0.3
			c-0.149-1.274-0.563-2.287-1.162-3.036c-0.712-0.862-1.687-1.312-2.887-1.312c-0.937,0-1.687,0.262-2.212,0.749
			c-0.563,0.487-0.824,1.237-0.824,2.175c0,1.049,0.375,1.799,1.162,2.249c0.262,0.149,0.824,0.3,1.688,0.45
			c0.6,0.111,1.236,0.225,1.836,0.299c1.237,0.301,2.137,0.713,2.699,1.275c0.637,0.637,0.938,1.574,0.938,2.773
			c0,1.387-0.375,2.512-1.162,3.374c-0.787,0.899-1.875,1.35-3.262,1.35c-0.637,0-1.424-0.188-2.398-0.563
			c-0.975-0.374-1.5-0.562-1.613-0.562c-0.337,0-0.486,0.299-0.523,0.861h-0.301v-5.173H155.556z"/>
	</g>
	<g>
		<path fill="#808285" d="M106.26,50.008c-0.037,0.338-0.149,0.638-0.337,0.824c-0.226,0.226-0.487,0.338-0.825,0.338
			c-0.486,0-0.861-0.15-1.124-0.449c-0.3-0.301-0.45-0.676-0.45-1.162c0-0.488,0.15-0.9,0.45-1.275
			c0.337-0.375,0.712-0.563,1.199-0.563c0.263,0,0.487,0.076,0.675,0.188c0.225,0.15,0.375,0.338,0.375,0.563
			c0,0.113-0.037,0.188-0.112,0.263s-0.188,0.112-0.263,0.112c-0.112,0-0.188-0.037-0.262-0.112
			c-0.076-0.075-0.113-0.149-0.113-0.263c0-0.112,0.075-0.225,0.188-0.375c0.037-0.037,0.037-0.037,0.037-0.037
			c0-0.074-0.074-0.112-0.225-0.188c-0.112-0.037-0.225-0.037-0.3-0.037c-0.3,0-0.524,0.112-0.712,0.3
			c-0.15,0.188-0.263,0.562-0.263,1.05v0.524c0,0.487,0.075,0.825,0.226,1.013c0.149,0.188,0.375,0.299,0.674,0.299
			c0.6,0,0.975-0.337,1.05-1.012H106.26z"/>
		<path fill="#808285" d="M106.561,49.483c0-0.45,0.149-0.862,0.486-1.2c0.301-0.337,0.676-0.486,1.088-0.486
			c0.449,0,0.824,0.188,1.125,0.524c0.299,0.337,0.449,0.712,0.449,1.162s-0.15,0.862-0.487,1.199
			c-0.3,0.337-0.638,0.487-1.087,0.487c-0.301,0-0.6-0.112-0.862-0.3s-0.45-0.45-0.563-0.749
			C106.635,49.934,106.561,49.708,106.561,49.483z M107.31,49.971c0,0.712,0.3,1.087,0.862,1.087s0.824-0.375,0.824-1.087v-0.975
			c0-0.713-0.262-1.088-0.824-1.088s-0.862,0.375-0.862,1.088V49.971z"/>
		<path fill="#808285" d="M110.084,51.058v-0.112h0.449v-2.961h-0.449v-0.113h0.449c0-0.037,0-0.074,0-0.188c0-0.074,0-0.15,0-0.188
			c0-0.524,0.075-0.938,0.188-1.274c0.188-0.487,0.525-0.712,0.938-0.712c0.188,0,0.338,0.074,0.487,0.188
			c0.112,0.112,0.188,0.3,0.188,0.486c0,0.264-0.112,0.375-0.375,0.375c-0.188,0-0.3-0.111-0.3-0.337
			c0-0.075,0.075-0.188,0.188-0.263c0.112-0.074,0.188-0.149,0.188-0.188c0-0.111-0.113-0.188-0.338-0.188s-0.375,0.15-0.449,0.45
			c-0.037,0.149-0.037,0.375-0.037,0.75v1.013h0.711v0.111h-0.711v2.962h0.449v0.112h-1.574V51.058z"/>
		<path fill="#808285" d="M112.184,51.058v-0.112h0.449v-2.961h-0.449v-0.113h0.449c0-0.037,0-0.074,0-0.188c0-0.074,0-0.15,0-0.188
			c0-0.524,0.075-0.938,0.188-1.274c0.188-0.487,0.525-0.712,0.938-0.712c0.188,0,0.337,0.074,0.486,0.188
			c0.113,0.112,0.188,0.3,0.188,0.486c0,0.264-0.111,0.375-0.374,0.375c-0.188,0-0.3-0.111-0.3-0.337
			c0-0.075,0.074-0.188,0.188-0.263c0.112-0.074,0.188-0.149,0.188-0.188c0-0.111-0.113-0.188-0.338-0.188s-0.375,0.15-0.449,0.45
			c-0.038,0.149-0.038,0.375-0.038,0.75v1.013h0.712v0.111h-0.712v2.962h0.45v0.112h-1.574V51.058z"/>
		<path fill="#808285" d="M115.069,49.146v0.938c0,0.638,0.263,0.975,0.788,0.975c0.299,0,0.562-0.112,0.749-0.3
			s0.337-0.412,0.413-0.713h0.111c-0.074,0.338-0.225,0.638-0.449,0.825c-0.225,0.226-0.525,0.337-0.862,0.337
			c-0.45,0-0.787-0.188-1.087-0.524c-0.263-0.337-0.412-0.712-0.412-1.162s0.111-0.825,0.337-1.162
			c0.263-0.374,0.6-0.562,1.013-0.562c0.375,0,0.712,0.149,0.975,0.412c0.262,0.262,0.375,0.6,0.412,0.975h-1.987V49.146z
			 M115.069,49.033h1.237v-0.375c0-0.524-0.225-0.787-0.637-0.787c-0.413,0-0.601,0.3-0.601,0.9V49.033z"/>
		<path fill="#808285" d="M118.219,49.146v0.938c0,0.638,0.262,0.975,0.787,0.975c0.3,0,0.563-0.112,0.75-0.3
			s0.337-0.412,0.412-0.713h0.112c-0.075,0.338-0.226,0.638-0.45,0.825c-0.225,0.226-0.524,0.337-0.861,0.337
			c-0.45,0-0.787-0.188-1.088-0.524c-0.262-0.337-0.412-0.712-0.412-1.162s0.112-0.825,0.338-1.162
			c0.262-0.374,0.6-0.562,1.012-0.562c0.375,0,0.712,0.149,0.975,0.412c0.262,0.262,0.375,0.6,0.412,0.975h-1.986V49.146z
			 M118.219,49.033h1.236v-0.375c0-0.524-0.225-0.787-0.637-0.787s-0.6,0.3-0.6,0.9V49.033z"/>
		<path fill="#808285" d="M123.579,50.495c0,0.337,0.112,0.487,0.338,0.487c0.262,0,0.449-0.15,0.563-0.449h0.111
			c-0.111,0.412-0.412,0.6-0.824,0.6c-0.263,0-0.487-0.075-0.637-0.225c-0.113-0.113-0.188-0.301-0.188-0.525v-2.398h-0.525v-0.113
			c0.6,0,0.975-0.375,1.087-1.049h0.112v1.049h0.9v0.113h-0.9v2.511H123.579z"/>
		<path fill="#808285" d="M128.302,50.721c-0.225,0.262-0.449,0.412-0.711,0.412c-0.375,0-0.563-0.188-0.638-0.525
			c-0.226,0.375-0.601,0.525-1.125,0.525c-0.263,0-0.45-0.075-0.638-0.225c-0.188-0.15-0.299-0.338-0.299-0.601
			c0-0.412,0.262-0.712,0.75-0.899c0.336-0.112,0.749-0.188,1.273-0.188h0.038v-0.824c0-0.375-0.188-0.563-0.601-0.563
			c-0.111,0-0.262,0.037-0.412,0.112c-0.188,0.075-0.262,0.188-0.262,0.3c0.149,0.15,0.225,0.262,0.225,0.338
			c0,0.262-0.112,0.375-0.338,0.375c-0.262,0-0.375-0.113-0.375-0.375c0-0.263,0.15-0.488,0.413-0.638
			c0.225-0.149,0.487-0.188,0.787-0.188c0.337,0,0.638,0.112,0.899,0.3c0.15,0.112,0.225,0.225,0.263,0.338
			c0.038,0.111,0.038,0.225,0.038,0.449v1.612c0,0.337,0.074,0.524,0.262,0.524c0.112,0,0.263-0.112,0.412-0.3L128.302,50.721z
			 M126.953,50.495v-1.087c-0.075,0-0.15,0-0.226,0c-0.712,0-1.086,0.3-1.086,0.899c0,0.487,0.187,0.712,0.562,0.712
			C126.54,50.982,126.766,50.832,126.953,50.495z"/>
		<path fill="#808285" d="M128.265,50.945h0.45v-5.099h-0.45v-0.112h0.412c0.264,0,0.525-0.074,0.75-0.188v2.961
			c0.225-0.486,0.563-0.749,1.088-0.749c0.412,0,0.787,0.188,1.049,0.524c0.263,0.338,0.412,0.713,0.412,1.162
			c0,0.488-0.111,0.9-0.374,1.199c-0.3,0.338-0.675,0.525-1.125,0.525c-0.412,0-0.749-0.225-1.013-0.637v0.524h-1.124v-0.112
			H128.265z M129.427,48.809v1.462c0.225,0.524,0.563,0.787,1.05,0.787c0.3,0,0.524-0.112,0.638-0.375
			c0.074-0.188,0.112-0.412,0.112-0.787v-0.937c0-0.713-0.263-1.088-0.787-1.088C129.989,47.908,129.651,48.209,129.427,48.809z"/>
		<path fill="#808285" d="M132.313,51.058v-0.112h0.449v-5.099h-0.449v-0.112h0.375c0.3,0,0.525-0.074,0.75-0.188v5.398h0.449v0.112
			H132.313z"/>
		<path fill="#808285" d="M134.9,49.146v0.938c0,0.638,0.263,0.975,0.787,0.975c0.3,0,0.562-0.112,0.749-0.3
			s0.338-0.412,0.413-0.713h0.112c-0.074,0.338-0.225,0.638-0.449,0.825c-0.226,0.226-0.525,0.337-0.863,0.337
			c-0.449,0-0.787-0.188-1.086-0.524c-0.264-0.337-0.413-0.712-0.413-1.162s0.112-0.825,0.337-1.162
			c0.263-0.374,0.6-0.562,1.013-0.562c0.375,0,0.712,0.149,0.975,0.412c0.263,0.262,0.375,0.6,0.413,0.975H134.9V49.146z
			 M134.9,49.033h1.237v-0.375c0-0.524-0.226-0.787-0.638-0.787c-0.413,0-0.6,0.3-0.6,0.9V49.033z"/>
	</g>
	<g>
		<g>
			<g>
				<g>
					<path fill="#808285" d="M54.431,52.65l2.549-5.811l-8.322-18.369c0,0-1.425-1.612,2.174-2.849h-5.398l9.822,21.18l-0.675,1.424
						l-10.534-22.68l-5.061,0.075c0,0,3.299-0.075,5.473,5.061L54.431,52.65z"/>
				</g>
				<path fill="#808285" d="M69.051,25.623h-4.985l-5.586,13.383l-7.91-11.771l7.647,16.27l6.373-14.508
					C64.59,29.034,65.452,26.222,69.051,25.623z"/>
			</g>
		</g>
		<circle fill="none" stroke="#808285" stroke-width="0.5" stroke-miterlimit="10" cx="67.215" cy="28.396" r="1.312"/>
		<g>
			<g>
				<path fill="#7E8083" d="M66.576,29.146L66.576,29.146l0.188-0.038v-1.462h-0.188v-0.037h0.639c0.337,0,0.523,0.112,0.523,0.375
					c0,0.225-0.149,0.337-0.449,0.375c0.112,0.038,0.225,0.075,0.263,0.112c0.037,0.038,0.112,0.15,0.112,0.263
					c0,0.038,0,0.075,0,0.112c0,0.188,0.074,0.262,0.15,0.262c0.037,0,0.074,0,0.074,0v0.038c-0.074,0.038-0.15,0.038-0.188,0.038
					c-0.112,0-0.149-0.038-0.225-0.112c-0.037-0.038-0.075-0.15-0.075-0.3c0-0.038,0-0.075,0-0.15c0-0.112-0.075-0.187-0.112-0.225
					s-0.15-0.038-0.262-0.038h-0.076v0.75h0.15v0.038H66.576z M66.989,27.646v0.675h0.075c0.3,0,0.449-0.112,0.449-0.337
					c0-0.112-0.037-0.225-0.074-0.262c-0.075-0.038-0.15-0.075-0.301-0.075H66.989z"/>
			</g>
		</g>
	</g>
</g>
</svg>
