<?xml version="1.0" encoding="utf-8"?>
<!-- Generator: Adobe Illustrator 16.0.0, SVG Export Plug-In . SVG Version: 6.00 Build 0)  -->
<!DOCTYPE svg PUBLIC "-//W3C//DTD SVG 1.1//EN" "http://www.w3.org/Graphics/SVG/1.1/DTD/svg11.dtd">
<svg version="1.1" id="Layer_1" xmlns="http://www.w3.org/2000/svg" xmlns:xlink="http://www.w3.org/1999/xlink" x="0px" y="0px"
	 width="50px" height="50px" viewBox="0 0 50 50" enable-background="new 0 0 50 50" xml:space="preserve">
<g>
	<g>
		<g>
			<g>
				<path fill="#808285" d="M25.7,47.382l4.231-9.576L16.235,7.519c0,0-2.339-2.672,3.563-4.677h-8.908l16.146,34.853l-1.113,2.339
					L8.552,2.619L0.201,2.73c0,0,5.457-0.112,9.02,8.351L25.7,47.382z"/>
			</g>
			<path fill="#808285" d="M49.799,2.788h-8.245l-9.149,22.104L19.359,5.506l12.593,26.815L42.46,8.405
				C42.46,8.405,43.909,3.785,49.799,2.788z"/>
		</g>
	</g>
	<circle fill="none" stroke="#808285" stroke-width="0.5" stroke-miterlimit="10" cx="46.811" cy="7.379" r="2.167"/>
	<g>
		<g>
			<path fill="#7E8083" d="M45.749,8.579V8.525h0.285V6.106h-0.285V6.052h1.061c0.585,0,0.878,0.2,0.878,0.6
				c0,0.353-0.238,0.552-0.714,0.598c0.212,0.032,0.367,0.095,0.462,0.188c0.096,0.093,0.155,0.246,0.18,0.457
				C47.62,7.943,47.626,8,47.632,8.069c0.025,0.304,0.101,0.457,0.224,0.457c0.051,0,0.097-0.009,0.138-0.026l0.022,0.05
				c-0.117,0.038-0.23,0.056-0.339,0.056c-0.156,0-0.271-0.06-0.349-0.179c-0.056-0.084-0.095-0.248-0.12-0.49
				c-0.006-0.056-0.014-0.129-0.024-0.22C47.158,7.54,47.09,7.421,46.977,7.36c-0.086-0.045-0.229-0.067-0.429-0.067h-0.126v1.232
				h0.268v0.054H45.749z M46.422,6.106v1.129h0.127c0.502,0,0.75-0.185,0.75-0.553c0-0.208-0.05-0.356-0.152-0.448
				c-0.098-0.085-0.253-0.128-0.464-0.128H46.422z"/>
		</g>
	</g>
</g>
</svg>
